<svg width="128" height="159" viewBox="0 0 128 159" fill="none" xmlns="http://www.w3.org/2000/svg">
<g filter="url(#filter0_d)">
<rect x="32" y="24" width="64" height="64" rx="20" fill="url(#paint0_linear)"/>
<path d="M81.9996 41.1001C81.9255 40.5681 81.5428 40.1306 81.0254 39.9867L64.4429 35.3752C64.2065 35.3094 63.9568 35.3094 63.7202 35.3752L47.1377 39.9867C46.6203 40.1306 46.2376 40.568 46.1635 41.1001C46.0673 41.7917 43.8732 58.1325 49.5011 66.2616C55.1223 74.381 63.4148 76.4617 63.765 76.5464C63.8691 76.5716 63.9751 76.584 64.0816 76.584C64.188 76.584 64.294 76.5714 64.3981 76.5464C64.7485 76.4617 73.041 74.381 78.662 66.2616C84.2899 58.1327 82.0958 41.7919 81.9996 41.1001ZM74.7751 50.6401L63.4642 61.951C63.201 62.2142 62.8558 62.3459 62.5109 62.3459C62.1659 62.3459 61.8207 62.2143 61.5575 61.951L54.5641 54.9575C54.3111 54.7048 54.1691 54.3618 54.1691 54.0042C54.1691 53.6466 54.3113 53.3036 54.5641 53.0508L55.9527 51.6623C56.4792 51.1359 57.333 51.1357 57.8593 51.6623L62.5109 56.3138L71.4798 47.3446C71.7326 47.0916 72.0756 46.9496 72.4332 46.9496C72.7908 46.9496 73.1338 47.0916 73.3865 47.3446L74.7751 48.7332C75.3017 49.2597 75.3017 50.1135 74.7751 50.6401Z" fill="white"/>
<g filter="url(#filter1_dd)">
<path d="M81.9996 41.1001C81.9255 40.5681 81.5428 40.1306 81.0254 39.9867L64.4429 35.3752C64.2065 35.3094 63.9568 35.3094 63.7202 35.3752L47.1377 39.9867C46.6203 40.1306 46.2376 40.568 46.1635 41.1001C46.0673 41.7917 43.8732 58.1325 49.5011 66.2616C55.1223 74.381 63.4148 76.4617 63.765 76.5464C63.8691 76.5716 63.9751 76.584 64.0816 76.584C64.188 76.584 64.294 76.5714 64.3981 76.5464C64.7485 76.4617 73.041 74.381 78.662 66.2616C84.2899 58.1327 82.0958 41.7919 81.9996 41.1001ZM74.7751 50.6401L63.4642 61.951C63.201 62.2142 62.8558 62.3459 62.5109 62.3459C62.1659 62.3459 61.8207 62.2143 61.5575 61.951L54.5641 54.9575C54.3111 54.7048 54.1691 54.3618 54.1691 54.0042C54.1691 53.6466 54.3113 53.3036 54.5641 53.0508L55.9527 51.6623C56.4792 51.1359 57.333 51.1357 57.8593 51.6623L62.5109 56.3138L71.4798 47.3446C71.7326 47.0916 72.0756 46.9496 72.4332 46.9496C72.7908 46.9496 73.1338 47.0916 73.3865 47.3446L74.7751 48.7332C75.3017 49.2597 75.3017 50.1135 74.7751 50.6401Z" fill="white"/>
</g>
<g filter="url(#filter2_iii)">
<path d="M81.9996 41.1001C81.9255 40.5681 81.5428 40.1306 81.0254 39.9867L64.4429 35.3752C64.2065 35.3094 63.9568 35.3094 63.7202 35.3752L47.1377 39.9867C46.6203 40.1306 46.2376 40.568 46.1635 41.1001C46.0673 41.7917 43.8732 58.1325 49.5011 66.2616C55.1223 74.381 63.4148 76.4617 63.765 76.5464C63.8691 76.5716 63.9751 76.584 64.0816 76.584C64.188 76.584 64.294 76.5714 64.3981 76.5464C64.7485 76.4617 73.041 74.381 78.662 66.2616C84.2899 58.1327 82.0958 41.7919 81.9996 41.1001ZM74.7751 50.6401L63.4642 61.951C63.201 62.2142 62.8558 62.3459 62.5109 62.3459C62.1659 62.3459 61.8207 62.2143 61.5575 61.951L54.5641 54.9575C54.3111 54.7048 54.1691 54.3618 54.1691 54.0042C54.1691 53.6466 54.3113 53.3036 54.5641 53.0508L55.9527 51.6623C56.4792 51.1359 57.333 51.1357 57.8593 51.6623L62.5109 56.3138L71.4798 47.3446C71.7326 47.0916 72.0756 46.9496 72.4332 46.9496C72.7908 46.9496 73.1338 47.0916 73.3865 47.3446L74.7751 48.7332C75.3017 49.2597 75.3017 50.1135 74.7751 50.6401Z" fill="#FAF8F8"/>
</g>
</g>
<defs>
<filter id="filter0_d" x="0" y="0" width="128" height="128" filterUnits="userSpaceOnUse" color-interpolation-filters="sRGB">
<feFlood flood-opacity="0" result="BackgroundImageFix"/>
<feColorMatrix in="SourceAlpha" type="matrix" values="0 0 0 0 0 0 0 0 0 0 0 0 0 0 0 0 0 0 127 0"/>
<feOffset dy="8"/>
<feGaussianBlur stdDeviation="16"/>
<feColorMatrix type="matrix" values="0 0 0 0 0 0 0 0 0 0 0 0 0 0 0 0 0 0 0.22 0"/>
<feBlend mode="normal" in2="BackgroundImageFix" result="effect1_dropShadow"/>
<feBlend mode="normal" in="SourceGraphic" in2="effect1_dropShadow" result="shape"/>
</filter>
<filter id="filter1_dd" x="2.66293" y="22.3258" width="122.837" height="136.258" filterUnits="userSpaceOnUse" color-interpolation-filters="sRGB">
<feFlood flood-opacity="0" result="BackgroundImageFix"/>
<feColorMatrix in="SourceAlpha" type="matrix" values="0 0 0 0 0 0 0 0 0 0 0 0 0 0 0 0 0 0 127 0"/>
<feOffset dy="39"/>
<feGaussianBlur stdDeviation="21.5"/>
<feColorMatrix type="matrix" values="0 0 0 0 0 0 0 0 0 0 0 0 0 0 0 0 0 0 0.22 0"/>
<feBlend mode="normal" in2="BackgroundImageFix" result="effect1_dropShadow"/>
<feColorMatrix in="SourceAlpha" type="matrix" values="0 0 0 0 0 0 0 0 0 0 0 0 0 0 0 0 0 0 127 0"/>
<feOffset dy="15"/>
<feGaussianBlur stdDeviation="14"/>
<feColorMatrix type="matrix" values="0 0 0 0 0 0 0 0 0 0 0 0 0 0 0 0 0 0 0.27 0"/>
<feBlend mode="normal" in2="effect1_dropShadow" result="effect2_dropShadow"/>
<feBlend mode="normal" in="SourceGraphic" in2="effect2_dropShadow" result="shape"/>
</filter>
<filter id="filter2_iii" x="45.6629" y="27.3258" width="42.8372" height="59.2582" filterUnits="userSpaceOnUse" color-interpolation-filters="sRGB">
<feFlood flood-opacity="0" result="BackgroundImageFix"/>
<feBlend mode="normal" in="SourceGraphic" in2="BackgroundImageFix" result="shape"/>
<feColorMatrix in="SourceAlpha" type="matrix" values="0 0 0 0 0 0 0 0 0 0 0 0 0 0 0 0 0 0 127 0" result="hardAlpha"/>
<feOffset dy="-7"/>
<feGaussianBlur stdDeviation="8.5"/>
<feComposite in2="hardAlpha" operator="arithmetic" k2="-1" k3="1"/>
<feColorMatrix type="matrix" values="0 0 0 0 0 0 0 0 0 0 0 0 0 0 0 0 0 0 0.25 0"/>
<feBlend mode="normal" in2="shape" result="effect1_innerShadow"/>
<feColorMatrix in="SourceAlpha" type="matrix" values="0 0 0 0 0 0 0 0 0 0 0 0 0 0 0 0 0 0 127 0" result="hardAlpha"/>
<feOffset dy="-8"/>
<feGaussianBlur stdDeviation="6.5"/>
<feComposite in2="hardAlpha" operator="arithmetic" k2="-1" k3="1"/>
<feColorMatrix type="matrix" values="0 0 0 0 0.176471 0 0 0 0 0.494118 0 0 0 0 0.980392 0 0 0 0.3 0"/>
<feBlend mode="normal" in2="effect1_innerShadow" result="effect2_innerShadow"/>
<feColorMatrix in="SourceAlpha" type="matrix" values="0 0 0 0 0 0 0 0 0 0 0 0 0 0 0 0 0 0 127 0" result="hardAlpha"/>
<feOffset dx="6" dy="12"/>
<feGaussianBlur stdDeviation="5"/>
<feComposite in2="hardAlpha" operator="arithmetic" k2="-1" k3="1"/>
<feColorMatrix type="matrix" values="0 0 0 0 0.985924 0 0 0 0 0.9475 0 0 0 0 1 0 0 0 0.5 0"/>
<feBlend mode="soft-light" in2="effect2_innerShadow" result="effect3_innerShadow"/>
</filter>
<linearGradient id="paint0_linear" x1="64" y1="24" x2="64" y2="88" gradientUnits="userSpaceOnUse">
<stop stop-color="#DD81FF"/>
<stop offset="1" stop-color="#2D7EFA"/>
</linearGradient>
</defs>
</svg>
