<svg width="136" height="159" viewBox="0 0 136 159" fill="none" xmlns="http://www.w3.org/2000/svg">
<g filter="url(#filter0_d)">
<rect x="32" y="24" width="64" height="64" rx="20" fill="url(#paint0_linear)"/>
<g clip-path="url(#clip0)" filter="url(#filter1_dd)">
<path d="M72.4831 57.2009V54.7992H74.8211C74.2649 49.7532 70.2468 45.7351 65.2009 45.1789V47.5169H62.7992V45.1789C57.7531 45.7351 53.7351 49.7532 53.1789 54.7992H55.5169V57.2009H53.1789C53.7351 62.2468 57.7531 66.2649 62.7992 66.8211V64.4831H65.2009V66.8211C70.2468 66.2649 74.2649 62.2468 74.8211 57.2009H72.4831ZM64 62.0843C60.6451 62.0843 57.9157 59.3548 57.9157 56C57.9157 52.6452 60.6451 49.9157 64 49.9157C67.3548 49.9157 70.0843 52.6452 70.0843 56C70.0843 59.3548 67.3548 62.0843 64 62.0843Z" fill="white"/>
<path d="M64 59.6826C66.0338 59.6826 67.6826 58.0338 67.6826 56C67.6826 53.9662 66.0338 52.3174 64 52.3174C61.9662 52.3174 60.3174 53.9662 60.3174 56C60.3174 58.0338 61.9662 59.6826 64 59.6826Z" fill="white"/>
<path d="M78.4918 41.5082C74.6208 37.6374 69.4742 35.5056 64 35.5056C58.5258 35.5056 53.3792 37.6374 49.5082 41.5082C45.6374 45.3792 43.5056 50.5258 43.5056 56C43.5056 61.4742 45.6374 66.6208 49.5082 70.4918C53.3792 74.3626 58.5258 76.4944 64 76.4944C69.4742 76.4944 74.6208 74.3626 78.4918 70.4918C82.3626 66.6208 84.4944 61.4742 84.4944 56C84.4944 50.5258 82.3626 45.3792 78.4918 41.5082ZM65.2008 71.6939H62.7992V69.2345C56.4277 68.661 51.339 63.5722 50.7655 57.2008H48.3061V54.7992H50.7655C51.339 48.4278 56.4277 43.339 62.7992 42.7655V40.3061H65.2008V42.7655C71.5722 43.339 76.661 48.4278 77.2345 54.7992H79.6939V57.2008H77.2345C76.661 63.5722 71.5722 68.661 65.2008 69.2345V71.6939Z" fill="white"/>
</g>
<g clip-path="url(#clip1)" filter="url(#filter2_iii)">
<path d="M72.4831 57.2009V54.7992H74.8211C74.2649 49.7532 70.2468 45.7351 65.2009 45.1789V47.5169H62.7992V45.1789C57.7531 45.7351 53.7351 49.7532 53.1789 54.7992H55.5169V57.2009H53.1789C53.7351 62.2468 57.7531 66.2649 62.7992 66.8211V64.4831H65.2009V66.8211C70.2468 66.2649 74.2649 62.2468 74.8211 57.2009H72.4831ZM64 62.0843C60.6451 62.0843 57.9157 59.3548 57.9157 56C57.9157 52.6452 60.6451 49.9157 64 49.9157C67.3548 49.9157 70.0843 52.6452 70.0843 56C70.0843 59.3548 67.3548 62.0843 64 62.0843Z" fill="white"/>
<path d="M64 59.6826C66.0338 59.6826 67.6826 58.0338 67.6826 56C67.6826 53.9662 66.0338 52.3174 64 52.3174C61.9662 52.3174 60.3174 53.9662 60.3174 56C60.3174 58.0338 61.9662 59.6826 64 59.6826Z" fill="white"/>
<path d="M78.4918 41.5082C74.6208 37.6374 69.4742 35.5056 64 35.5056C58.5258 35.5056 53.3792 37.6374 49.5082 41.5082C45.6374 45.3792 43.5056 50.5258 43.5056 56C43.5056 61.4742 45.6374 66.6208 49.5082 70.4918C53.3792 74.3626 58.5258 76.4944 64 76.4944C69.4742 76.4944 74.6208 74.3626 78.4918 70.4918C82.3626 66.6208 84.4944 61.4742 84.4944 56C84.4944 50.5258 82.3626 45.3792 78.4918 41.5082ZM65.2008 71.6939H62.7992V69.2345C56.4277 68.661 51.339 63.5722 50.7655 57.2008H48.3061V54.7992H50.7655C51.339 48.4278 56.4277 43.339 62.7992 42.7655V40.3061H65.2008V42.7655C71.5722 43.339 76.661 48.4278 77.2345 54.7992H79.6939V57.2008H77.2345C76.661 63.5722 71.5722 68.661 65.2008 69.2345V71.6939Z" fill="white"/>
</g>
</g>
<defs>
<filter id="filter0_d" x="8" y="0" width="128" height="128" filterUnits="userSpaceOnUse" color-interpolation-filters="sRGB">
<feFlood flood-opacity="0" result="BackgroundImageFix"/>
<feColorMatrix in="SourceAlpha" type="matrix" values="0 0 0 0 0 0 0 0 0 0 0 0 0 0 0 0 0 0 127 0"/>
<feOffset dx="8" dy="8"/>
<feGaussianBlur stdDeviation="16"/>
<feColorMatrix type="matrix" values="0 0 0 0 0 0 0 0 0 0 0 0 0 0 0 0 0 0 0.22 0"/>
<feBlend mode="normal" in2="BackgroundImageFix" result="effect1_dropShadow"/>
<feBlend mode="normal" in="SourceGraphic" in2="effect1_dropShadow" result="shape"/>
</filter>
<filter id="filter1_dd" x="0.505615" y="22.5056" width="126.989" height="135.989" filterUnits="userSpaceOnUse" color-interpolation-filters="sRGB">
<feFlood flood-opacity="0" result="BackgroundImageFix"/>
<feColorMatrix in="SourceAlpha" type="matrix" values="0 0 0 0 0 0 0 0 0 0 0 0 0 0 0 0 0 0 127 0"/>
<feOffset dy="39"/>
<feGaussianBlur stdDeviation="21.5"/>
<feColorMatrix type="matrix" values="0 0 0 0 0 0 0 0 0 0 0 0 0 0 0 0 0 0 0.22 0"/>
<feBlend mode="normal" in2="BackgroundImageFix" result="effect1_dropShadow"/>
<feColorMatrix in="SourceAlpha" type="matrix" values="0 0 0 0 0 0 0 0 0 0 0 0 0 0 0 0 0 0 127 0"/>
<feOffset dy="15"/>
<feGaussianBlur stdDeviation="14"/>
<feColorMatrix type="matrix" values="0 0 0 0 0 0 0 0 0 0 0 0 0 0 0 0 0 0 0.27 0"/>
<feBlend mode="normal" in2="effect1_dropShadow" result="effect2_dropShadow"/>
<feBlend mode="normal" in="SourceGraphic" in2="effect2_dropShadow" result="shape"/>
</filter>
<filter id="filter2_iii" x="43.5056" y="27.5056" width="46.9888" height="58.9888" filterUnits="userSpaceOnUse" color-interpolation-filters="sRGB">
<feFlood flood-opacity="0" result="BackgroundImageFix"/>
<feBlend mode="normal" in="SourceGraphic" in2="BackgroundImageFix" result="shape"/>
<feColorMatrix in="SourceAlpha" type="matrix" values="0 0 0 0 0 0 0 0 0 0 0 0 0 0 0 0 0 0 127 0" result="hardAlpha"/>
<feOffset dy="-7"/>
<feGaussianBlur stdDeviation="8.5"/>
<feComposite in2="hardAlpha" operator="arithmetic" k2="-1" k3="1"/>
<feColorMatrix type="matrix" values="0 0 0 0 0 0 0 0 0 0 0 0 0 0 0 0 0 0 0.25 0"/>
<feBlend mode="normal" in2="shape" result="effect1_innerShadow"/>
<feColorMatrix in="SourceAlpha" type="matrix" values="0 0 0 0 0 0 0 0 0 0 0 0 0 0 0 0 0 0 127 0" result="hardAlpha"/>
<feOffset dy="-8"/>
<feGaussianBlur stdDeviation="6.5"/>
<feComposite in2="hardAlpha" operator="arithmetic" k2="-1" k3="1"/>
<feColorMatrix type="matrix" values="0 0 0 0 0.176471 0 0 0 0 0.494118 0 0 0 0 0.980392 0 0 0 0.3 0"/>
<feBlend mode="normal" in2="effect1_innerShadow" result="effect2_innerShadow"/>
<feColorMatrix in="SourceAlpha" type="matrix" values="0 0 0 0 0 0 0 0 0 0 0 0 0 0 0 0 0 0 127 0" result="hardAlpha"/>
<feOffset dx="6" dy="12"/>
<feGaussianBlur stdDeviation="5"/>
<feComposite in2="hardAlpha" operator="arithmetic" k2="-1" k3="1"/>
<feColorMatrix type="matrix" values="0 0 0 0 0.985924 0 0 0 0 0.9475 0 0 0 0 1 0 0 0 0.5 0"/>
<feBlend mode="soft-light" in2="effect2_innerShadow" result="effect3_innerShadow"/>
</filter>
<linearGradient id="paint0_linear" x1="64" y1="24" x2="64" y2="88" gradientUnits="userSpaceOnUse">
<stop stop-color="#DD81FF"/>
<stop offset="1" stop-color="#2D7EFA"/>
</linearGradient>
<clipPath id="clip0">
<rect width="40.9888" height="40.9888" fill="white" transform="translate(43.5056 35.5056)"/>
</clipPath>
<clipPath id="clip1">
<rect width="40.9888" height="40.9888" fill="white" transform="translate(43.5056 35.5056)"/>
</clipPath>
</defs>
</svg>
