<svg width="589" height="588" viewBox="0 0 589 588" fill="none" xmlns="http://www.w3.org/2000/svg">
    <rect width="329.92" height="110.656" rx="20" transform="matrix(0.866025 -0.5 2.20305e-08 1 0 468.241)" fill="url(#paint0_linear)" fill-opacity="0.3"/>
    <rect width="329.92" height="110.656" rx="20" transform="matrix(0.866025 -0.5 2.20305e-08 1 8.70923 476.95)" fill="#303030"/>
    <rect width="268.444" height="11.2706" rx="5.63528" transform="matrix(0.866025 -0.5 2.20305e-08 1 27.343 484.635)" fill="#2D7EFA"/>
    <rect width="268.444" height="11.2706" rx="5.63528" transform="matrix(0.866025 -0.5 2.20305e-08 1 27.343 526.643)" fill="#404040"/>
    <rect width="268.444" height="11.2706" rx="5.63528" transform="matrix(0.866025 -0.5 2.20305e-08 1 27.343 545.086)" fill="#404040"/>
    <rect width="54.3036" height="11.2706" rx="5.63528" transform="matrix(0.866025 -0.5 2.20305e-08 1 27.343 505.126)" fill="#F1BF00"/>
    <rect width="123.464" height="11.2706" rx="5.63528" transform="matrix(0.866025 -0.5 2.20305e-08 1 80.5825 474.388)" fill="#DD81FF"/>
    <rect width="329.92" height="110.656" rx="20" transform="matrix(0.866025 -0.5 2.20305e-08 1 294.572 449.286)" fill="url(#paint1_linear)" fill-opacity="0.3"/>
    <rect width="329.92" height="110.656" rx="20" transform="matrix(0.866025 -0.5 2.20305e-08 1 303.281 457.995)" fill="#303030"/>
    <rect width="268.444" height="11.2706" rx="5.63528" transform="matrix(0.866025 -0.5 2.20305e-08 1 321.915 465.679)" fill="#2D7EFA"/>
    <rect width="66.0865" height="11.2706" rx="5.63528" transform="matrix(0.866025 -0.5 2.20305e-08 1 321.915 502.565)" fill="#2D7EFA"/>
    <rect width="66.0865" height="11.2706" rx="5.63528" transform="matrix(0.866025 -0.5 2.20305e-08 1 403.105 455.689)" fill="#2D7EFA"/>
    <rect width="66.0865" height="11.2706" rx="5.63528" transform="matrix(0.866025 -0.5 2.20305e-08 1 484.295 408.814)" fill="#2D7EFA"/>
    <rect width="85.5538" height="11.2706" rx="5.63528" transform="matrix(0.866025 -0.5 2.20305e-08 1 321.915 521.008)" fill="#404040"/>
    <rect width="85.5538" height="11.2706" rx="5.63528" transform="matrix(0.866025 -0.5 2.20305e-08 1 403.105 474.132)" fill="#404040"/>
    <rect width="85.5538" height="11.2706" rx="5.63528" transform="matrix(0.866025 -0.5 2.20305e-08 1 484.295 427.257)" fill="#404040"/>
    <rect width="54.3036" height="11.2706" rx="5.63528" transform="matrix(0.866025 -0.5 2.20305e-08 1 321.915 481.048)" fill="#F1BF00"/>
    <rect width="123.464" height="11.2706" rx="5.63528" transform="matrix(0.866025 -0.5 2.20305e-08 1 375.154 450.311)" fill="#DD81FF"/>
    <path opacity="0.1" d="M442.068 74.3303C440.42 72.877 438.312 72.1636 435.909 72.2462C433.507 72.3288 430.875 73.205 428.221 74.8062L188.522 212.876L177.859 169.92C176.881 166.215 174.706 163.696 171.675 162.754C168.644 161.813 164.927 162.502 161.104 164.715L99.8982 200.053L99.8982 216.05L161.104 180.713C161.853 180.281 162.582 180.141 163.181 180.314C163.78 180.487 164.217 180.964 164.427 181.674L215.801 390.219C216.78 393.923 218.954 396.443 221.985 397.384C225.017 398.325 228.734 397.636 232.557 395.423L398.726 299.485C402.718 297.224 406.597 293.407 409.685 288.7C412.772 283.993 414.873 278.696 415.619 273.734L446.084 88.9693C446.587 85.6855 446.487 82.6566 445.791 80.1177C445.094 77.5789 443.82 75.5984 442.068 74.3303V74.3303ZM279.915 416.074C279.915 422.402 278.29 429.525 275.247 436.544C272.204 443.563 267.879 450.161 262.818 455.504C257.758 460.848 252.189 464.696 246.817 466.563C241.445 468.43 236.51 468.232 232.637 465.994C228.763 463.755 226.126 459.577 225.057 453.988C223.989 448.398 224.537 441.648 226.633 434.592C228.729 427.535 232.279 420.489 236.833 414.343C241.388 408.198 246.742 403.23 252.22 400.068C259.565 395.827 266.609 395.131 271.803 398.133C276.997 401.134 279.915 407.588 279.915 416.074ZM404.541 344.12C404.541 350.448 402.917 357.572 399.874 364.591C396.831 371.609 392.506 378.207 387.445 383.551C382.384 388.894 376.816 392.743 371.444 394.61C366.071 396.477 361.137 396.279 357.263 394.04C353.39 391.802 350.753 387.624 349.684 382.034C348.615 376.445 349.164 369.695 351.26 362.638C353.356 355.582 356.906 348.535 361.46 342.39C366.015 336.245 371.369 331.277 376.847 328.115C384.192 323.874 391.236 323.178 396.43 326.179C401.624 329.181 404.541 335.635 404.541 344.12Z" fill="url(#paint2_linear)"/>
    <path opacity="0.4" d="M456.412 79.9658C454.765 78.5125 452.656 77.7991 450.254 77.8817C447.851 77.9643 445.219 78.8405 442.565 80.4417L202.866 218.512L192.204 175.555C191.225 171.851 189.05 169.331 186.019 168.39C182.988 167.448 179.271 168.138 175.448 170.351L114.243 205.688L114.243 221.686L175.448 186.349C176.197 185.916 176.926 185.776 177.525 185.949C178.125 186.123 178.562 186.6 178.772 187.309L230.146 395.854C231.124 399.559 233.299 402.078 236.33 403.02C239.361 403.961 243.078 403.271 246.901 401.058L413.07 305.121C417.062 302.859 420.941 299.042 424.029 294.335C427.117 289.628 429.217 284.331 429.964 279.369L460.428 94.6048C460.932 91.321 460.832 88.2921 460.135 85.7532C459.439 83.2144 458.165 81.2339 456.412 79.9658V79.9658ZM294.259 421.709C294.259 428.037 292.635 435.161 289.592 442.18C286.549 449.198 282.223 455.796 277.163 461.14C272.102 466.483 266.534 470.332 261.161 472.199C255.789 474.066 250.854 473.868 246.981 471.629C243.108 469.391 240.47 465.213 239.402 459.623C238.333 454.034 238.881 447.284 240.978 440.227C243.074 433.171 246.624 426.124 251.178 419.979C255.732 413.834 261.087 408.866 266.564 405.703C273.909 401.463 280.954 400.767 286.148 403.768C291.341 406.77 294.259 413.223 294.259 421.709ZM418.886 349.756C418.886 356.084 417.262 363.208 414.219 370.226C411.175 377.245 406.85 383.843 401.789 389.186C396.729 394.53 391.16 398.378 385.788 400.245C380.416 402.113 375.481 401.914 371.608 399.676C367.735 397.437 365.097 393.259 364.028 387.67C362.96 382.08 363.508 375.33 365.604 368.274C367.701 361.217 371.25 354.171 375.805 348.026C380.359 341.88 385.714 336.913 391.191 333.75C398.536 329.509 405.581 328.813 410.774 331.815C415.968 334.817 418.886 341.27 418.886 349.756Z" fill="url(#paint3_linear)"/>
    <g opacity="0.2">
    <path d="M115.066 330.182L143.035 314.034L143.035 327.955L115.066 344.103L115.066 380.694L102.252 388.092L102.252 351.501L74.2832 367.649L74.2832 353.728L102.252 337.58L102.252 303.773L115.066 296.375L115.066 330.182Z" fill="url(#paint4_linear)"/>
    <path d="M20.6157 294.209L34.7542 286.047L34.7542 293.084L20.6157 301.246L20.6157 319.743L14.1385 323.483L14.1385 304.986L5.31522e-07 313.149L3.76495e-07 306.112L14.1385 297.949L14.1385 280.859L20.6157 277.12L20.6157 294.209Z" fill="url(#paint5_linear)"/>
    <path d="M71.2607 181.851L80.4308 176.557L80.4308 181.121L71.2607 186.415L71.2607 198.412L67.0597 200.837L67.0597 188.84L57.8896 194.135L57.8896 189.571L67.0597 184.276L67.0597 173.192L71.2607 170.767L71.2607 181.851Z" fill="url(#paint6_linear)"/>
    </g>
    <path opacity="0.2" d="M511.878 185.964L486.408 235.321C482.926 242.101 483.476 248.881 487.69 250.508C491.905 252.135 498.135 247.887 501.617 241.107L501.891 240.474V295.255C501.891 301.492 506.289 304.023 511.786 300.95C517.283 297.786 521.681 290.283 521.681 284.046V229.265L521.956 229.536C525.438 232.338 531.759 229.446 535.882 223.027C540.097 216.609 540.646 209.196 537.165 206.394L511.878 185.964Z" fill="url(#paint7_linear)"/>
    <defs>
        <linearGradient id="paint0_linear" x1="164.96" y1="0" x2="164.96" y2="110.656" gradientUnits="userSpaceOnUse">
        <stop stop-color="white"/>
        <stop offset="1" stop-color="white" stop-opacity="0"/>
        </linearGradient>
        <linearGradient id="paint1_linear" x1="164.96" y1="0" x2="164.96" y2="110.656" gradientUnits="userSpaceOnUse">
        <stop stop-color="white"/>
        <stop offset="1" stop-color="white" stop-opacity="0"/>
        </linearGradient>
        <linearGradient id="paint2_linear" x1="273.149" y1="100.026" x2="425.547" y2="363.988" gradientUnits="userSpaceOnUse">
        <stop stop-color="white"/>
        <stop offset="1" stop-color="white" stop-opacity="0"/>
        </linearGradient>
        <linearGradient id="paint3_linear" x1="287.493" y1="105.662" x2="439.892" y2="369.624" gradientUnits="userSpaceOnUse">
        <stop stop-color="white"/>
        <stop offset="1" stop-color="white" stop-opacity="0"/>
        </linearGradient>
        <linearGradient id="paint4_linear" x1="108.659" y1="300.074" x2="145.17" y2="363.313" gradientUnits="userSpaceOnUse">
        <stop stop-color="white"/>
        <stop offset="1" stop-color="white" stop-opacity="0"/>
        </linearGradient>
        <linearGradient id="paint5_linear" x1="17.3771" y1="278.99" x2="35.8337" y2="310.957" gradientUnits="userSpaceOnUse">
        <stop stop-color="white"/>
        <stop offset="1" stop-color="white" stop-opacity="0"/>
        </linearGradient>
        <linearGradient id="paint6_linear" x1="69.1602" y1="171.98" x2="81.131" y2="192.713" gradientUnits="userSpaceOnUse">
        <stop stop-color="white"/>
        <stop offset="1" stop-color="white" stop-opacity="0"/>
        </linearGradient>
        <linearGradient id="paint7_linear" x1="493.773" y1="235.755" x2="539.945" y2="261.841" gradientUnits="userSpaceOnUse">
        <stop stop-color="white"/>
        <stop offset="1" stop-color="white" stop-opacity="0"/>
        </linearGradient>
    </defs>
</svg>
