<svg width="589" height="754" viewBox="0 0 589 754" fill="none" xmlns="http://www.w3.org/2000/svg">
<path opacity="0.07" d="M57.3718 359.773C35.6591 341.15 22.2974 306.493 22.2974 259.727C22.2974 163.69 78.5835 53.2888 147.897 14.0389C217.295 -25.2946 272.579 20.8032 271.91 117.592C271.576 163.606 258.382 212.961 237.087 255.885C220.635 288.956 209.862 325.867 206.271 360.19C204.851 374.888 196.083 390.087 185.978 395.933L108.48 440.611C98.292 446.54 89.6069 441.195 88.0202 428.251C84.5127 398.104 73.8234 374.053 57.3718 359.773Z" fill="url(#paint0_linear)"/>
<path opacity="0.07" d="M89.5234 518.443V497.899C89.5234 486.876 95.8702 474.433 103.804 469.673L190.822 419.399C198.755 414.806 205.102 419.984 205.102 431.007V451.551C205.102 468.086 196.417 486.458 185.06 495.477L109.399 539.153C98.125 543.412 89.5234 534.811 89.5234 518.443Z" fill="url(#paint1_linear)"/>
<path opacity="0.4" d="M99.1272 393.01C77.4144 374.387 64.0527 339.73 64.0527 292.964C64.0527 196.927 120.339 86.5259 189.653 47.2759C259.05 7.94246 314.334 54.0403 313.666 150.829C313.332 196.843 300.137 246.198 278.842 289.123C262.39 322.193 251.617 359.104 248.027 393.427C246.607 408.125 237.838 423.324 227.733 429.17L150.236 473.848C140.047 479.777 131.362 474.432 129.776 461.488C126.268 431.341 115.579 407.206 99.1272 393.01Z" fill="url(#paint2_linear)"/>
<path opacity="0.4" d="M131.279 551.68V531.136C131.279 520.113 137.626 507.67 145.559 502.91L232.577 452.636C240.511 448.043 246.857 453.221 246.857 464.244V484.788C246.857 501.323 238.172 519.695 226.815 528.714L151.154 572.39C139.88 576.649 131.279 568.048 131.279 551.68Z" fill="url(#paint3_linear)"/>
<path d="M314.083 558.862L562.61 415.39L562.527 544.915L335.879 675.693L313.916 708.178L314.083 558.862Z" fill="#333333"/>
<path d="M589 465.915V430.757L495.218 484.871V520.029L589 465.915Z" fill="#2D7EFA"/>
<path opacity="0.15" d="M377.969 553.517L432.418 522.117V533.475L377.969 564.875V553.517Z" fill="white"/>
<path opacity="0.15" d="M377.885 576.315L482.858 515.77V527.128L377.885 587.673V576.315Z" fill="white"/>
<path opacity="0.15" d="M377.885 599.03L505.072 525.625V536.982L377.885 610.388V599.03Z" fill="white"/>
<path d="M364.524 573.142C364.524 583.831 358.177 596.107 350.41 600.617C342.644 605.126 336.297 600.116 336.297 589.427C336.297 578.737 342.644 566.461 350.41 561.952C358.177 557.442 364.524 562.453 364.524 573.142Z" fill="#2D7EFA"/>
<path d="M294.709 480.946L46.1814 624.417L46.0979 753.942L272.662 623.165L294.542 630.347L294.709 480.946Z" fill="#333333"/>
<path d="M118.502 647.216V612.058L24.7192 666.256V701.414L118.502 647.216Z" fill="#DD81FF"/>
<path opacity="0.15" d="M230.823 549.425L176.375 580.825V592.182L230.823 560.782V549.425Z" fill="white"/>
<path opacity="0.15" d="M230.823 572.14L132.531 628.844V640.201L230.823 583.497V572.14Z" fill="white"/>
<path opacity="0.15" d="M230.74 594.938L103.637 668.344V679.701L230.823 606.295L230.74 594.938Z" fill="white"/>
<path d="M244.185 553.517C244.185 564.206 250.532 569.217 258.298 564.707C266.065 560.198 272.411 547.922 272.411 537.232C272.411 526.543 266.065 521.532 258.298 526.042C250.532 530.551 244.185 542.828 244.185 553.517Z" fill="#DD81FF"/>
<path opacity="0.15" d="M17.4536 470.09L11.1903 483.953L63.969 496.229L9.10254 572.641L15.3658 579.238L82.7589 485.372L17.4536 470.09Z" fill="white"/>
<path d="M0 485.623C0 496.396 6.3468 501.49 14.1133 497.064C21.8798 492.554 28.2266 480.195 28.2266 469.338C28.2266 458.565 21.8798 453.471 14.1133 457.897C6.26329 462.407 0 474.85 0 485.623Z" fill="#2D7EFA"/>
<path d="M0 581.326C0 592.099 6.3468 597.193 14.1133 592.767C21.8798 588.258 28.2266 575.898 28.2266 565.042C28.2266 554.269 21.8798 549.175 14.1133 553.601C6.26329 558.194 0 570.553 0 581.326Z" fill="#2D7EFA"/>
<path d="M60.2112 497.481C60.2112 508.254 66.558 513.348 74.3245 508.922C82.0909 504.413 88.4378 492.053 88.4378 481.197C88.4378 470.424 82.0909 465.33 74.3245 469.756C66.558 474.182 60.2112 486.709 60.2112 497.481Z" fill="#DD81FF"/>
<path d="M453.88 211.458L313.916 292.213V551.513L453.88 470.758V211.458Z" fill="#333333"/>
<path opacity="0.15" d="M440.184 365.368L327.779 430.255V441.613L440.184 376.809V365.368Z" fill="white"/>
<path opacity="0.15" d="M432.334 392.091L335.712 447.876V459.234L432.334 403.449V392.091Z" fill="white"/>
<path d="M391.498 438.44L488.871 382.237V411.215L391.498 467.418V438.44Z" fill="#DD81FF"/>
<path d="M368.031 313.424C368.031 325.951 375.297 331.88 384.232 326.702C393.168 321.441 400.433 307.077 400.433 294.467C400.433 281.941 393.168 276.011 384.232 281.189C375.297 286.45 368.031 300.897 368.031 313.424Z" fill="#DD81FF"/>
<path d="M384.232 336.807C398.679 328.373 410.621 336.306 412.709 354.428C413.043 357.601 410.705 361.777 407.782 363.447L360.682 391.006C357.759 392.676 355.421 391.34 355.755 387.749C357.843 367.038 369.785 345.242 384.232 336.807Z" fill="#DD81FF"/>
<path opacity="0.2" d="M248.36 738.41C298.884 673.439 262.307 649.889 248.36 687.969C234.331 666.09 197.836 731.729 248.36 738.41Z" fill="url(#paint4_linear)"/>
<defs>
<linearGradient id="paint0_linear" x1="49.1003" y1="122.199" x2="304.679" y2="354.905" gradientUnits="userSpaceOnUse">
<stop stop-color="white"/>
<stop offset="1" stop-color="white" stop-opacity="0"/>
</linearGradient>
<linearGradient id="paint1_linear" x1="-83.1618" y1="267.42" x2="172.417" y2="500.126" gradientUnits="userSpaceOnUse">
<stop stop-color="white"/>
<stop offset="1" stop-color="white" stop-opacity="0"/>
</linearGradient>
<linearGradient id="paint2_linear" x1="90.8716" y1="155.42" x2="346.451" y2="388.126" gradientUnits="userSpaceOnUse">
<stop stop-color="white"/>
<stop offset="1" stop-color="white" stop-opacity="0"/>
</linearGradient>
<linearGradient id="paint3_linear" x1="-41.391" y1="300.641" x2="214.189" y2="533.347" gradientUnits="userSpaceOnUse">
<stop stop-color="white"/>
<stop offset="1" stop-color="white" stop-opacity="0"/>
</linearGradient>
<linearGradient id="paint4_linear" x1="237.662" y1="690.475" x2="275.044" y2="722.768" gradientUnits="userSpaceOnUse">
<stop stop-color="white"/>
<stop offset="1" stop-color="white" stop-opacity="0"/>
</linearGradient>
</defs>
</svg>
