<svg width="589" height="681" viewBox="0 0 589 681" fill="none" xmlns="http://www.w3.org/2000/svg">
<path opacity="0.2" d="M250.492 1.59494L589 380.249L250.416 368.129C247.916 368.053 245.19 363.963 245.795 361.236L279.881 209.896L450.461 295.337L277.836 182.552L245.871 3.26135C245.265 -0.222961 247.992 -1.13191 250.492 1.59494Z" fill="url(#paint0_linear)"/>
<path opacity="0.5" d="M224.511 20.4558L563.019 399.109L224.435 386.99C221.935 386.914 219.209 382.824 219.815 380.097L253.824 228.833L424.404 314.274L251.931 201.413L219.89 22.1222C219.284 18.6379 222.011 17.7289 224.511 20.4558Z" fill="url(#paint1_linear)"/>
<path d="M249.431 420.47L24.0115 290.338L24.0872 407.82L229.586 526.438L249.507 555.903L249.431 420.47Z" fill="#333333"/>
<path d="M0 336.165V304.276L85.0626 353.359V385.248L0 336.165Z" fill="#DD81FF"/>
<path opacity="0.15" d="M191.486 415.622L142.099 387.142V397.443L191.486 425.923V415.622Z" fill="white"/>
<path opacity="0.15" d="M191.486 436.225L96.2732 381.309V391.611L191.486 446.526V436.225Z" fill="white"/>
<path opacity="0.15" d="M191.561 456.903L76.2004 390.323V400.624L191.561 467.205V456.903Z" fill="white"/>
<path d="M203.681 433.346C203.681 443.042 209.437 454.176 216.482 458.267C223.526 462.357 229.283 457.812 229.283 448.117C229.283 438.421 223.526 427.287 216.482 423.196C209.362 419.106 203.681 423.651 203.681 433.346Z" fill="#DD81FF"/>
<path d="M268.898 323.439L494.318 453.571L494.393 571.053L288.819 452.359L268.974 458.873L268.898 323.439Z" fill="#333333"/>
<path d="M428.722 474.249V442.36L513.784 491.444V523.333L428.722 474.249Z" fill="#2D7EFA"/>
<path opacity="0.15" d="M326.844 385.475L376.23 413.956V424.257L326.844 395.777V385.475Z" fill="white"/>
<path opacity="0.15" d="M326.844 406.154L415.996 457.585V467.887L326.844 416.455V406.154Z" fill="white"/>
<path opacity="0.15" d="M326.919 426.757L442.28 493.337V503.639L326.919 437.058V426.757Z" fill="white"/>
<path d="M314.724 389.187C314.724 398.882 308.967 403.427 301.923 399.337C294.879 395.246 289.122 384.112 289.122 374.416C289.122 364.721 294.879 360.176 301.923 364.266C308.967 368.357 314.724 379.567 314.724 389.187Z" fill="#2D7EFA"/>
<path d="M525.146 610.667L390.546 532.952V603.093L525.146 680.808V610.667Z" fill="#333333"/>
<path opacity="0.15" d="M425.01 569.765L465.459 593.171V601.578L425.01 578.173V569.765Z" fill="white"/>
<path opacity="0.15" d="M425.01 586.656L511.209 636.421V644.981L425.01 595.216V586.656Z" fill="white"/>
<path d="M417.89 572.264C417.89 578.021 414.481 580.748 410.24 578.324C405.998 575.9 402.589 569.234 402.589 563.478C402.589 557.721 405.998 554.994 410.24 557.418C414.481 559.842 417.89 566.508 417.89 572.264Z" fill="#2D7EFA"/>
<path d="M152.477 503.108L17.8762 425.393V495.534L152.477 573.249V503.108Z" fill="#333333"/>
<path opacity="0.15" d="M52.3406 462.206L92.7889 485.612V494.019L52.3406 470.614V462.206Z" fill="white"/>
<path opacity="0.15" d="M52.3406 479.097L138.539 528.862V537.421L52.3406 487.656V479.097Z" fill="white"/>
<path d="M45.2203 464.705C45.2203 470.462 41.8118 473.189 37.57 470.765C33.3282 468.341 29.9197 461.675 29.9197 455.919C29.9197 450.162 33.3282 447.435 37.57 449.859C41.8118 452.283 45.2203 458.948 45.2203 464.705Z" fill="#DD81FF"/>
<path opacity="0.2" d="M171.792 280.037L139.372 261.327V250.42L171.792 269.129C174.443 270.644 178.306 273.75 181.563 278.522C185.123 283.597 187.622 290.035 187.622 297.004C187.622 304.73 185.653 309.123 181.942 310.335C178.457 311.471 174.291 309.502 171.792 308.063L158.46 300.336L158.385 300.261C157.248 299.579 155.43 298.897 153.991 299.352C152.779 299.73 151.492 300.867 151.492 305.184C151.492 309.502 152.855 312.077 153.916 313.668C155.279 315.637 157.097 317.001 158.233 317.607L158.385 317.682L199.136 341.239V352.147L158.612 328.741C155.809 327.302 151.795 324.196 148.31 319.349C144.523 313.971 141.948 307.229 141.948 299.73C141.948 292.232 144.523 288.444 148.235 287.384C151.719 286.399 155.733 287.838 158.536 289.505L171.716 297.079C173.609 298.216 175.049 298.67 176.033 298.367C176.791 298.14 178.154 297.079 178.154 291.55C178.154 287.914 177.018 285.566 175.882 284.051C174.594 282.082 172.852 280.643 171.792 280.037Z" fill="white"/>
<path d="M145.281 258.979C145.281 268.751 139.524 273.371 132.48 269.357C125.435 265.266 119.678 254.056 119.678 244.209C119.678 234.438 125.435 229.817 132.48 233.832C139.524 237.922 145.281 249.208 145.281 258.979Z" fill="#DD81FF"/>
<path d="M215.724 355.934C215.724 365.706 209.967 370.326 202.923 366.312C195.879 362.221 190.122 351.011 190.122 341.164C190.122 331.393 195.879 326.772 202.923 330.787C209.967 334.877 215.724 346.163 215.724 355.934Z" fill="#2D7EFA"/>
<path opacity="0.2" d="M305.71 512.501V576.355C305.71 577.036 306.392 577.794 306.847 577.567L321.769 568.401L336.993 595.367C337.827 596.806 339.266 596.958 339.266 595.594V531.968L305.71 512.501Z" fill="url(#paint2_linear)"/>
<defs>
<linearGradient id="paint0_linear" x1="462.23" y1="131.549" x2="307.977" y2="335.253" gradientUnits="userSpaceOnUse">
<stop stop-color="white"/>
<stop offset="1" stop-color="white" stop-opacity="0"/>
</linearGradient>
<linearGradient id="paint1_linear" x1="436.284" y1="150.417" x2="282.031" y2="354.121" gradientUnits="userSpaceOnUse">
<stop stop-color="white"/>
<stop offset="1" stop-color="white" stop-opacity="0"/>
</linearGradient>
<linearGradient id="paint2_linear" x1="336.999" y1="545.141" x2="298.807" y2="569.328" gradientUnits="userSpaceOnUse">
<stop stop-color="white"/>
<stop offset="1" stop-color="white" stop-opacity="0"/>
</linearGradient>
</defs>
</svg>
