<svg width="598" height="731" viewBox="0 0 598 731" fill="none" xmlns="http://www.w3.org/2000/svg">
<g opacity="0.2">
<rect width="565.176" height="306.917" rx="20" transform="matrix(0.866025 0.5 -2.20305e-08 1 108.544 0)" fill="url(#paint0_linear)"/>
</g>
<rect width="565.176" height="306.917" rx="20" transform="matrix(0.866025 0.5 -2.20305e-08 1 89.8293 15.4395)" fill="#333333"/>
<rect width="522.132" height="41.1717" rx="20" transform="matrix(0.866025 0.5 -2.20305e-08 1 108.468 58.0146)" fill="#2D7EFA"/>
<rect width="134.744" height="22.4573" rx="11.2287" transform="matrix(0.866025 0.5 -2.20305e-08 1 108.468 121.644)" fill="#404040"/>
<rect width="166.558" height="177.319" rx="20" transform="matrix(0.866025 0.5 -2.20305e-08 1 409.111 295.22)" fill="#404040"/>
<rect width="134.744" height="22.4573" rx="11.2287" transform="matrix(0.866025 0.5 -2.20305e-08 1 105.631 272.529)" fill="#2D7EFA"/>
<rect width="234.866" height="14.5037" rx="7.25184" transform="matrix(0.866025 0.5 -2.20305e-08 1 108.468 222.702)" fill="#404040"/>
<rect width="122.579" height="14.5037" rx="7.25184" transform="matrix(0.866025 0.5 -2.20305e-08 1 108.468 248.434)" fill="#404040"/>
<rect width="262.938" height="22.4573" rx="11.2287" transform="matrix(0.866025 0.5 -2.20305e-08 1 108.468 155.33)" fill="#DD81FF"/>
<circle r="7.48577" transform="matrix(0.866025 0.5 -2.20305e-08 1 554.165 300.366)" fill="#DD81FF"/>
<rect width="14.9715" height="7.48577" rx="3.74288" transform="matrix(0.866025 0.5 -2.20305e-08 1 529.043 282.12)" fill="#2D7EFA"/>
<rect width="216.152" height="22.4573" rx="11.2287" transform="matrix(0.866025 0.5 -2.20305e-08 1 108.468 189.016)" fill="#DD81FF"/>
<path d="M543.63 523.536L418.43 451.252L418.43 393.105L445.982 419.939L484.879 404.933L543.63 495.439L543.63 523.536Z" fill="#333333"/>
<circle r="11.2287" transform="matrix(0.866025 0.5 -2.20305e-08 1 443.551 371.247)" fill="#333333"/>
<g opacity="0.2">
<rect opacity="0.4" width="227.415" height="271.243" rx="20" transform="matrix(0.866025 0.5 -2.20305e-08 1 13.2314 169.365)" fill="url(#paint1_linear)"/>
</g>
<rect width="227.415" height="271.243" rx="20" transform="matrix(0.866025 0.5 -2.20305e-08 1 0 179.289)" fill="#333333"/>
<rect width="173.268" height="9.92354" rx="4.96177" transform="matrix(0.866025 0.5 -2.20305e-08 1 23.446 293.715)" fill="#404040"/>
<rect width="173.268" height="19.8471" rx="9.92354" transform="matrix(0.866025 0.5 -2.20305e-08 1 23.446 406.182)" fill="#2D7EFA"/>
<rect width="169.057" height="6.61569" rx="3.30785" transform="matrix(0.866025 0.5 -2.20305e-08 1 25.0093 374.006)" fill="#404040"/>
<rect width="157.626" height="6.61569" rx="3.30785" transform="matrix(0.866025 0.5 -2.20305e-08 1 30.2195 390.245)" fill="#404040"/>
<rect width="173.268" height="13.2314" rx="6.61569" transform="matrix(0.866025 0.5 -2.20305e-08 1 23.446 323.486)" fill="#DD81FF"/>
<rect width="116.715" height="13.2314" rx="6.61569" transform="matrix(0.866025 0.5 -2.20305e-08 1 47.9341 360.779)" fill="#DD81FF"/>
<rect width="181.691" height="36.3863" rx="18.1932" transform="matrix(0.866025 0.5 -2.20305e-08 1 19.7988 237.857)" fill="#2D7EFA"/>
<circle r="6.61569" transform="matrix(0.866025 0.5 -2.20305e-08 1 181.191 297.131)" fill="#DD81FF"/>
<rect width="13.2314" height="6.61569" rx="3.30785" transform="matrix(0.866025 0.5 -2.20305e-08 1 158.99 281.005)" fill="#2D7EFA"/>
<g opacity="0.2">
<rect opacity="0.4" width="150.784" height="261.678" rx="20" transform="matrix(0.866025 0.5 -2.20305e-08 1 396.396 386.921)" fill="url(#paint2_linear)"/>
</g>
<rect width="150.784" height="261.678" rx="20" transform="matrix(0.866025 0.5 -2.20305e-08 1 380.838 393.303)" fill="#333333"/>
<rect width="114.883" height="9.57358" rx="4.78679" transform="matrix(0.866025 0.5 -2.20305e-08 1 396.384 483.654)" fill="#404040"/>
<rect width="114.883" height="19.1472" rx="9.57358" transform="matrix(0.866025 0.5 -2.20305e-08 1 396.384 592.154)" fill="#2D7EFA"/>
<rect width="112.091" height="6.38239" rx="3.19119" transform="matrix(0.866025 0.5 -2.20305e-08 1 397.42 560.841)" fill="#404040"/>
<rect width="104.512" height="6.38239" rx="3.19119" transform="matrix(0.866025 0.5 -2.20305e-08 1 400.875 575.6)" fill="#404040"/>
<rect width="114.883" height="12.7648" rx="6.38239" transform="matrix(0.866025 0.5 -2.20305e-08 1 396.384 512.375)" fill="#DD81FF"/>
<rect width="77.3865" height="12.7648" rx="6.38239" transform="matrix(0.866025 0.5 -2.20305e-08 1 412.621 544.087)" fill="#DD81FF"/>
<rect width="120.468" height="35.1031" rx="17.5516" transform="matrix(0.866025 0.5 -2.20305e-08 1 393.966 418.434)" fill="#2D7EFA"/>
<g opacity="0.2">
<path d="M247.177 521.097L227.848 485.639L247.177 472.501L267.649 484.32L248.225 497.404L267.649 532.917L247.177 521.097Z" fill="url(#paint3_linear)"/>
<path d="M317.046 471.169L291.528 581.446L275.817 572.376L301.335 462.099L317.046 471.169Z" fill="url(#paint4_linear)"/>
<path d="M324.008 516.859L344.48 528.678L363.809 564.136L344.48 577.275L324.008 565.456L343.433 552.372L324.008 516.859Z" fill="url(#paint5_linear)"/>
</g>
<g opacity="0.2">
<path d="M47.7217 39.8565C48.9254 40.4948 49.8098 40.7075 50.3748 40.4948C50.9398 40.2537 51.2223 39.6225 51.2223 38.6013C51.2223 37.8355 51.0994 36.247 50.8538 33.8359C50.8292 33.5948 50.7555 32.8289 50.6327 31.5382C50.5099 30.2192 50.4485 29.0633 50.4485 28.0705C50.4485 25.6594 51.0872 24.156 52.3646 23.5603C53.642 22.9363 55.3493 23.2412 57.4865 24.4751L60.1396 26.0069L60.1396 31.9637L58.7025 31.134C57.9164 30.6802 57.3514 30.5525 57.0075 30.7511C56.6636 30.9496 56.4916 31.4602 56.4916 32.2828C56.4916 32.9069 56.5899 34.3819 56.7864 36.7079C57.0075 39.5871 57.118 41.4521 57.118 42.3031C57.118 43.8632 56.7864 44.9624 56.1231 45.6006C55.4844 46.253 54.5018 46.3381 53.1752 45.8559L53.1752 45.941C54.5018 47.0189 55.4844 48.2528 56.1231 49.6428C56.7864 51.0185 57.118 52.5006 57.118 54.0891C57.118 54.9401 57.0075 56.6775 56.7864 59.3014C56.5899 61.3437 56.4916 62.6911 56.4916 63.3435C56.4916 64.1661 56.6636 64.8753 57.0075 65.471C57.3514 66.095 57.9164 66.6339 58.7025 67.0878L60.1396 67.9175L60.1396 73.8743L57.4865 72.3426C55.3493 71.1087 53.642 69.4422 52.3646 67.3431C51.0872 65.2724 50.4485 63.0173 50.4485 60.5778C50.4485 59.585 50.5099 58.5142 50.6327 57.3654C50.7555 56.1882 50.8292 55.4932 50.8538 55.2805C51.0994 53.1531 51.2223 51.7064 51.2223 50.9405C51.2223 49.9761 50.9398 49.0471 50.3748 48.1536C49.8098 47.2317 48.9254 46.3949 47.7217 45.6432L47.7217 39.8565Z" fill="url(#paint6_linear)"/>
<path d="M77.7908 63.0036C76.5871 62.3654 75.7028 62.181 75.1377 62.4505C74.5727 62.6916 74.2902 63.2944 74.2902 64.2588C74.2902 65.0247 74.4131 66.6132 74.6587 69.0243C74.6833 69.2654 74.757 70.0454 74.8798 71.3645C75.0026 72.6551 75.064 73.7968 75.064 74.7896C75.064 77.2291 74.4253 78.7467 73.1479 79.3424C71.8705 79.9664 70.1632 79.6615 68.026 78.4276L65.3729 76.8958L65.3729 70.939L66.81 71.7687C67.5961 72.2225 68.1611 72.336 68.505 72.1091C68.8489 71.9105 69.0209 71.3999 69.0209 70.5773C69.0209 69.9249 68.9226 68.464 68.7261 66.1948C68.505 63.3156 68.3945 61.4506 68.3945 60.5996C68.3945 59.0111 68.7138 57.9048 69.3525 57.2808C70.0158 56.6426 71.0107 56.5504 72.3373 57.0042L72.3373 56.9191C71.0107 55.8696 70.0158 54.6428 69.3525 53.2387C68.7138 51.8487 68.3945 50.3737 68.3945 48.8136C68.3945 47.9626 68.505 46.2252 68.7261 43.6013C68.9226 41.5023 69.0209 40.1407 69.0209 39.5166C69.0209 38.694 68.849 37.9849 68.505 37.3892C68.1611 36.7935 67.5961 36.2687 66.81 35.8149L65.3729 34.9852L65.3729 29.0284L68.026 30.5601C70.1632 31.794 71.8705 33.4605 73.1479 35.5596C74.4253 37.6303 75.064 39.8712 75.064 42.2823C75.064 43.2751 75.0026 44.3601 74.8798 45.5373C74.757 46.6861 74.6833 47.3669 74.6587 47.5796C74.4131 49.7071 74.2902 51.1538 74.2902 51.9196C74.2902 52.9408 74.5727 53.8982 75.1377 54.7917C75.7028 55.6568 76.5871 56.4653 77.7908 57.217L77.7908 63.0036Z" fill="url(#paint7_linear)"/>
</g>
<defs>
<linearGradient id="paint0_linear" x1="282.588" y1="0" x2="282.588" y2="306.917" gradientUnits="userSpaceOnUse">
<stop stop-color="white"/>
<stop offset="1" stop-color="white" stop-opacity="0"/>
</linearGradient>
<linearGradient id="paint1_linear" x1="113.707" y1="0" x2="113.707" y2="271.243" gradientUnits="userSpaceOnUse">
<stop stop-color="white"/>
<stop offset="1" stop-color="white" stop-opacity="0"/>
</linearGradient>
<linearGradient id="paint2_linear" x1="75.392" y1="0" x2="75.392" y2="261.678" gradientUnits="userSpaceOnUse">
<stop stop-color="white"/>
<stop offset="1" stop-color="white" stop-opacity="0"/>
</linearGradient>
<linearGradient id="paint3_linear" x1="295.829" y1="458.919" x2="241.698" y2="552.677" gradientUnits="userSpaceOnUse">
<stop stop-color="white"/>
<stop offset="1" stop-color="white" stop-opacity="0"/>
</linearGradient>
<linearGradient id="paint4_linear" x1="295.829" y1="458.919" x2="241.698" y2="552.677" gradientUnits="userSpaceOnUse">
<stop stop-color="white"/>
<stop offset="1" stop-color="white" stop-opacity="0"/>
</linearGradient>
<linearGradient id="paint5_linear" x1="295.829" y1="458.919" x2="241.698" y2="552.677" gradientUnits="userSpaceOnUse">
<stop stop-color="white"/>
<stop offset="1" stop-color="white" stop-opacity="0"/>
</linearGradient>
<linearGradient id="paint6_linear" x1="62.7927" y1="19.5341" x2="35.1172" y2="67.4694" gradientUnits="userSpaceOnUse">
<stop stop-color="white"/>
<stop offset="1" stop-color="white" stop-opacity="0"/>
</linearGradient>
<linearGradient id="paint7_linear" x1="62.7927" y1="19.5341" x2="35.1172" y2="67.4694" gradientUnits="userSpaceOnUse">
<stop stop-color="white"/>
<stop offset="1" stop-color="white" stop-opacity="0"/>
</linearGradient>
</defs>
</svg>
